<svg width="28" height="28" viewBox="0 0 28 28" fill="none" xmlns="http://www.w3.org/2000/svg">
<path d="M27.3375 0.308204C27.0614 0.0687288 26.6949 -0.0387864 26.3331 0.0125649L8.6815 2.53425C8.0603 2.62301 7.59896 3.15501 7.59896 3.78249V8.8258V18.565C6.85215 18.1299 5.9852 17.8793 5.06032 17.8793C2.27001 17.8793 0 20.1494 0 22.9397C0 25.7299 2.27001 28 5.06032 28C7.85063 28 10.1206 25.7299 10.1206 22.9397V9.91933L25.2507 7.75787V16.0433C24.5038 15.6082 23.6369 15.3577 22.712 15.3577C19.9217 15.3577 17.6517 17.6278 17.6517 20.418C17.6517 23.2083 19.9217 25.4784 22.712 25.4784C25.5023 25.4784 27.7723 23.2083 27.7723 20.418V6.30406V1.26075C27.7722 0.895218 27.6136 0.54768 27.3375 0.308204ZM5.06027 25.4782C3.66049 25.4782 2.52163 24.3394 2.52163 22.9396C2.52163 21.5398 3.66049 20.401 5.06027 20.401C6.46004 20.401 7.59891 21.5398 7.59891 22.9396C7.59891 24.3394 6.46004 25.4782 5.06027 25.4782ZM25.2506 5.21054L10.1206 7.372V4.87596L25.2506 2.7145V5.21054ZM22.712 22.9566C21.3122 22.9566 20.1733 21.8177 20.1733 20.4179C20.1733 19.0181 21.3122 17.8793 22.712 17.8793C24.1117 17.8793 25.2506 19.0181 25.2506 20.4179C25.2506 21.8177 24.1117 22.9566 22.712 22.9566Z" fill="#F37906"/>
</svg>
