<svg width="24" height="24" viewBox="0 0 24 24" fill="none" xmlns="http://www.w3.org/2000/svg">
<circle cx="12" cy="12" r="12" fill="#BB1F3B"/>
<path d="M6.6389 11.9444L15.819 11.9444L12.4373 8.9671C12.3763 8.91521 12.3276 8.85314 12.2941 8.78451C12.2606 8.71589 12.243 8.64208 12.2423 8.56739C12.2415 8.4927 12.2577 8.41863 12.2898 8.3495C12.3219 8.28037 12.3694 8.21757 12.4294 8.16475C12.4893 8.11194 12.5607 8.07017 12.6392 8.04189C12.7177 8.0136 12.8018 7.99937 12.8867 8.00002C12.9715 8.00067 13.0553 8.01619 13.1333 8.04567C13.2112 8.07515 13.2817 8.118 13.3407 8.17172L17.8129 12.1092C17.9327 12.2147 18 12.3578 18 12.5069C18 12.6561 17.9327 12.7991 17.8129 12.9046L13.3407 16.8421C13.2202 16.9446 13.0588 17.0013 12.8913 17C12.7238 16.9987 12.5635 16.9395 12.4451 16.8352C12.3266 16.731 12.2594 16.5899 12.258 16.4424C12.2565 16.2949 12.3209 16.1528 12.4373 16.0467L15.819 13.0694L6.6389 13.0694C6.46945 13.0694 6.30694 13.0101 6.18713 12.9047C6.06731 12.7992 6 12.6561 6 12.5069C6 12.3577 6.06731 12.2147 6.18713 12.1092C6.30694 12.0037 6.46945 11.9444 6.6389 11.9444Z" fill="white"/>
</svg>
