<svg width="8" height="8" viewBox="0 0 8 8" fill="none" xmlns="http://www.w3.org/2000/svg">
<path d="M8 2.90698L7.00148 0.97463C7.00148 0.97463 6.15522 1.48837 4.98665 2.18182C4.99061 1.28541 5.00049 0.494715 5.02224 0L2.95798 0.0147992C2.95798 0.0147992 2.97578 0.915433 2.98764 2.16913C1.83292 1.48414 0.99654 0.97463 0.99654 0.97463L0 2.90698C0.440929 3.13531 1.13495 3.52643 1.91597 3.97463C1.22986 4.36575 0.569451 4.73573 0 5.03805L0.984676 6.97886C0.984676 6.97886 1.85269 6.45877 2.99951 5.78013C2.99357 6.57928 2.98171 7.34884 2.95996 8H5.02422C5.02422 8 5.01038 7.04651 5.00049 5.78013C6.14731 6.45877 7.01532 6.97886 7.01532 6.97886L8 5.03805C7.43253 4.73573 6.77014 4.36575 6.08403 3.97463C6.86505 3.52643 7.55709 3.13742 8 2.90698Z" fill="#C20B28"/>
</svg>
